<?xml version="1.0" encoding="UTF-8"?>
<svg xmlns="http://www.w3.org/2000/svg" xmlns:xlink="http://www.w3.org/1999/xlink" width="144px" height="144px" viewBox="0 0 144 144" version="1.1">
<g id="surface1">
<path style=" stroke:none;fill-rule:nonzero;fill:rgb(100%,0%,0%);fill-opacity:1;" d="M 42.710938 84.140625 L 31.914062 84.140625 L 32.933594 81.59375 L 41.679688 81.59375 Z M 44.761719 89.261719 L 29.921875 89.261719 L 30.910156 86.703125 L 43.671875 86.703125 Z M 46.757812 94.382812 L 27.929688 94.382812 L 28.933594 91.824219 L 45.695312 91.824219 Z M 29.035156 46.035156 L 7.152344 101.410156 L 4.386719 101.410156 L 27.652344 42.585938 L 30.417969 42.585938 L 53.652344 101.410156 L 50.917969 101.410156 Z M 9.886719 101.410156 L 29.355469 52.101562 L 30.808594 55.375 L 12.621094 101.410156 Z M 15.386719 101.410156 L 32.191406 58.855469 L 33.546875 62.375 L 18.167969 101.410156 Z M 20.902344 101.410156 L 34.898438 65.894531 L 36.25 69.476562 L 23.636719 101.410156 Z M 46.902344 42.585938 L 70.167969 101.410156 L 67.402344 101.410156 L 44.167969 42.585938 Z M 38.667969 42.585938 L 41.402344 42.585938 L 64.667969 101.410156 L 61.929688 101.410156 Z M 33.152344 42.585938 L 35.886719 42.585938 L 59.152344 101.410156 L 56.386719 101.410156 Z M 126.925781 62.695312 L 124.828125 64.078125 C 123.550781 62.1875 121.886719 60.6875 119.839844 59.582031 C 117.792969 58.484375 115.570312 57.9375 113.175781 57.9375 C 109.296875 57.9375 105.984375 59.308594 103.238281 62.054688 C 100.484375 64.800781 99.105469 68.117188 99.105469 72.007812 C 99.105469 75.886719 100.484375 79.199219 103.238281 81.945312 C 105.984375 84.691406 109.296875 86.0625 113.175781 86.0625 C 115.570312 86.0625 117.792969 85.507812 119.839844 84.402344 C 121.886719 83.289062 123.550781 81.785156 124.828125 79.894531 L 126.882812 81.378906 C 125.367188 83.609375 123.402344 85.371094 120.988281 86.671875 C 118.574219 87.972656 115.96875 88.621094 113.175781 88.621094 C 110.925781 88.621094 108.777344 88.1875 106.730469 87.3125 C 104.683594 86.429688 102.914062 85.246094 101.417969 83.761719 C 99.925781 82.269531 98.742188 80.5 97.867188 78.453125 C 96.996094 76.394531 96.558594 74.246094 96.558594 72.007812 C 96.558594 69.757812 96.996094 67.601562 97.867188 65.546875 C 98.742188 63.5 99.925781 61.730469 101.417969 60.238281 C 102.914062 58.753906 104.683594 57.570312 106.730469 56.6875 C 108.777344 55.8125 110.925781 55.375 113.175781 55.375 C 115.996094 55.375 118.617188 56.03125 121.03125 57.339844 C 123.445312 58.660156 125.410156 60.445312 126.925781 62.695312 Z M 131.144531 59.785156 L 129.019531 61.167969 C 127.265625 58.605469 124.996094 56.574219 122.210938 55.070312 C 119.4375 53.566406 116.425781 52.816406 113.175781 52.816406 C 109.691406 52.816406 106.480469 53.675781 103.542969 55.390625 C 100.613281 57.109375 98.289062 59.4375 96.574219 62.375 C 94.859375 65.3125 94 68.523438 94 72.007812 C 94 75.480469 94.859375 78.683594 96.574219 81.625 C 98.289062 84.5625 100.613281 86.890625 103.542969 88.609375 C 106.480469 90.324219 109.691406 91.183594 113.175781 91.183594 C 116.425781 91.183594 119.445312 90.425781 122.238281 88.914062 C 125.03125 87.390625 127.300781 85.339844 129.046875 82.757812 L 131.144531 84.214844 C 129.15625 87.152344 126.578125 89.476562 123.417969 91.183594 C 120.265625 92.890625 116.851562 93.742188 113.175781 93.742188 C 109.246094 93.742188 105.613281 92.769531 102.277344 90.820312 C 98.929688 88.878906 96.289062 86.242188 94.347656 82.90625 C 92.40625 79.566406 91.4375 75.933594 91.4375 72.007812 C 91.4375 68.070312 92.40625 64.429688 94.347656 61.09375 C 96.289062 57.757812 98.929688 55.121094 102.277344 53.179688 C 105.613281 51.230469 109.246094 50.253906 113.175781 50.253906 C 116.851562 50.253906 120.265625 51.109375 123.417969 52.816406 C 126.578125 54.523438 129.15625 56.847656 131.144531 59.785156 Z M 135.40625 56.933594 L 133.28125 58.332031 C 131.050781 55.0625 128.167969 52.472656 124.625 50.5625 C 121.085938 48.660156 117.269531 47.710938 113.175781 47.710938 C 109.886719 47.710938 106.738281 48.34375 103.734375 49.613281 C 100.726562 50.894531 98.136719 52.621094 95.964844 54.792969 C 93.800781 56.957031 92.078125 59.542969 90.796875 62.550781 C 89.515625 65.554688 88.878906 68.710938 88.878906 72.007812 C 88.878906 75.296875 89.515625 78.441406 90.796875 81.449219 C 92.078125 84.457031 93.800781 87.042969 95.964844 89.203125 C 98.136719 91.378906 100.726562 93.105469 103.734375 94.382812 C 106.738281 95.65625 109.886719 96.289062 113.175781 96.289062 C 117.296875 96.289062 121.125 95.335938 124.65625 93.425781 C 128.175781 91.503906 131.050781 88.910156 133.28125 85.640625 L 135.347656 87.167969 C 132.886719 90.765625 129.703125 93.613281 125.804688 95.707031 C 121.90625 97.804688 117.695312 98.851562 113.175781 98.851562 C 108.324219 98.851562 103.839844 97.648438 99.714844 95.242188 C 95.59375 92.847656 92.332031 89.589844 89.925781 85.464844 C 87.519531 81.34375 86.316406 76.855469 86.316406 72.007812 C 86.316406 67.148438 87.519531 62.65625 89.925781 58.535156 C 92.332031 54.410156 95.59375 51.152344 99.714844 48.757812 C 103.839844 46.351562 108.324219 45.148438 113.175781 45.148438 C 117.722656 45.148438 121.953125 46.207031 125.863281 48.320312 C 129.769531 50.445312 132.953125 53.316406 135.40625 56.933594 Z M 139.613281 54.023438 L 137.472656 55.40625 C 134.777344 51.457031 131.289062 48.335938 127.011719 46.035156 C 122.734375 43.738281 118.121094 42.585938 113.175781 42.585938 C 109.199219 42.585938 105.390625 43.363281 101.753906 44.914062 C 98.117188 46.46875 94.984375 48.558594 92.355469 51.1875 C 89.726562 53.816406 87.640625 56.949219 86.097656 60.585938 C 84.546875 64.214844 83.769531 68.019531 83.769531 72.007812 C 83.769531 75.984375 84.546875 79.785156 86.097656 83.414062 C 87.640625 87.050781 89.726562 90.183594 92.355469 92.8125 C 94.984375 95.441406 98.117188 97.53125 101.753906 99.082031 C 105.390625 100.636719 109.199219 101.410156 113.175781 101.410156 C 118.121094 101.410156 122.738281 100.253906 127.027344 97.933594 C 131.3125 95.605469 134.804688 92.46875 137.503906 88.519531 L 139.566406 90.078125 C 136.628906 94.34375 132.839844 97.726562 128.203125 100.21875 C 123.558594 102.722656 118.546875 103.972656 113.175781 103.972656 C 108.839844 103.972656 104.703125 103.125 100.765625 101.425781 C 96.816406 99.738281 93.417969 97.464844 90.566406 94.601562 C 87.714844 91.75 85.4375 88.355469 83.742188 84.417969 C 82.054688 80.46875 81.210938 76.332031 81.210938 72.007812 C 81.210938 67.671875 82.054688 63.53125 83.742188 59.582031 C 85.4375 55.644531 87.714844 52.25 90.566406 49.398438 C 93.417969 46.535156 96.816406 44.261719 100.765625 42.574219 C 104.703125 40.875 108.839844 40.027344 113.175781 40.027344 C 118.578125 40.027344 123.597656 41.28125 128.234375 43.796875 C 132.878906 46.308594 136.671875 49.71875 139.613281 54.023438 Z M 139.613281 54.023438 "/>
<path style=" stroke:none;fill-rule:nonzero;fill:rgb(100%,0%,0%);fill-opacity:1;" d="M 27.082031 28.453125 C 38.859375 16.304688 55.078125 9.441406 72 9.441406 C 88.921875 9.441406 105.140625 16.304688 116.917969 28.453125 L 111.582031 28.453125 C 89.582031 7.382812 54.417969 7.382812 32.417969 28.453125 L 27.082031 28.453125 M 27.082031 115.546875 C 38.859375 127.695312 55.078125 134.558594 72 134.558594 C 88.921875 134.558594 105.140625 127.695312 116.917969 115.546875 L 111.582031 115.546875 C 89.582031 136.617188 54.417969 136.617188 32.417969 115.546875 L 27.082031 115.546875 "/>
</g>
</svg>
